<?xml version="1.0" encoding="utf-8"?>
<!-- Generator: Adobe Illustrator 16.0.0, SVG Export Plug-In . SVG Version: 6.00 Build 0)  -->
<!DOCTYPE svg PUBLIC "-//W3C//DTD SVG 1.1//EN" "http://www.w3.org/Graphics/SVG/1.1/DTD/svg11.dtd">
<svg version="1.1" id="Layer_1" xmlns="http://www.w3.org/2000/svg" xmlns:xlink="http://www.w3.org/1999/xlink" x="0px" y="0px"
	 width="371.655px" height="352px" viewBox="0 0 371.655 352" enable-background="new 0 0 371.655 352" xml:space="preserve">
<g>
	
	<path fill="#9FBB3B" d="M310.466,233.955c0-1.423-0.618-2.702-1.602-3.583c0.622-0.818,0.992-1.84,0.992-2.947
		c0-2.191-1.445-4.046-3.436-4.66c0.145-0.462,0.223-0.953,0.223-1.464c0-2.693-2.184-4.878-4.877-4.878
		c-0.221,0-0.438,0.017-0.65,0.045c-0.585-2.037-2.461-3.529-4.688-3.529c-1.927,0-3.594,1.119-4.385,2.742
		c-0.701-0.391-1.509-0.613-2.368-0.613c-1.829,0-3.423,1.008-4.258,2.499c-0.848-0.714-1.942-1.144-3.136-1.144
		c-2.694,0-4.879,2.185-4.879,4.878c0,0.078,0.003,0.155,0.007,0.232c-2.621,0.159-4.698,2.335-4.698,4.996
		c0,1.799,0.948,3.374,2.372,4.257c-0.004,0.029-0.009,0.059-0.011,0.088c-1.344,0.868-2.233,2.379-2.233,4.097
		c0,2.429,1.775,4.442,4.099,4.814c0.433,2.183,2.32,3.841,4.609,3.921v0.004h20.219c2.149,0,3.893-1.742,3.893-3.893
		c0-0.367-0.053-0.721-0.147-1.059c0.049,0.002,0.098,0.004,0.147,0.004C308.313,238.763,310.466,236.61,310.466,233.955z"/>
	<g>
		<g>
			<polygon fill="#F78F22" points="215.286,122.495 158.803,122.495 158.803,89.001 186.227,68.823 215.286,89.001 			"/>
			<path fill="#FFFFFF" d="M187.044,86.323c-6.47,0-11.733,5.264-11.733,11.732c0,6.47,5.264,11.733,11.733,11.733
				c6.471,0,11.733-5.264,11.733-11.733C198.777,91.587,193.515,86.323,187.044,86.323z"/>
			<polygon fill="#424143" points="153.234,98.056 148.408,89.507 186.143,62.704 223.695,87.861 219.095,96.567 186.311,74.942
				"/>
			<g>
				<g>
					<path fill="#424143" d="M192.779,94.555l-4.979,2.761c-0.227-0.118-0.483-0.187-0.759-0.187c-0.272,0-0.53,0.068-0.755,0.187
						l-4.979-2.761c-0.47-0.262-1.064-0.092-1.325,0.38c-0.261,0.47-0.091,1.063,0.38,1.324l5.078,2.817
						c0.146,0.752,0.807,1.319,1.601,1.319c0.796,0,1.456-0.567,1.603-1.319l5.079-2.817c0.47-0.261,0.641-0.854,0.38-1.324
						C193.842,94.463,193.25,94.293,192.779,94.555z"/>
				</g>
			</g>
		</g>
		<g>
			<rect x="80.262" y="191.403" fill="#D57D28" width="210.82" height="52.15"/>
			<polygon fill="#424143" points="295.104,192.785 75.686,192.785 65.7,166.726 305.646,166.726 			"/>
			<rect x="140.551" y="136.469" fill="#F78F22" width="90.245" height="107.085"/>
			<g>
				<rect x="159.18" y="185.429" fill="#895F3D" width="52.984" height="58.125"/>
				<rect x="162.024" y="188.548" fill="#9AD7DD" width="47.298" height="55.006"/>
				<polygon opacity="0.15" fill="#FFFFFF" points="180.783,188.548 162.024,188.548 162.024,199.828 198.605,243.554
					209.322,243.554 209.322,222.242 				"/>
				<rect x="184.611" y="187.067" fill="#895F3D" width="2.218" height="56.486"/>
			</g>
			<rect x="150.305" y="240.235" fill="#C2986C" width="70.734" height="7.213"/>
			<polygon fill="#424143" points="242.678,142.299 128.111,142.299 118.128,116.239 253.219,116.239 			"/>
			<g>
				<rect x="90.271" y="203.742" fill="#895F3D" width="42.442" height="27.292"/>
				<rect x="91.902" y="205.206" fill="#9AD7DD" width="39.424" height="24.364"/>
				<polygon opacity="0.15" fill="#FFFFFF" points="118.713,205.206 110.061,205.206 105.436,205.206 126.041,229.57
					131.326,229.57 131.326,220.1 				"/>
				<polygon opacity="0.15" fill="#FFFFFF" points="101.391,205.206 93.701,205.206 114.303,229.57 122.451,229.57 				"/>
				<g>
					<g>
						<rect x="103.958" y="204.725" fill="#895F3D" width="1.108" height="25.327"/>
						<rect x="118.936" y="204.725" fill="#895F3D" width="1.111" height="25.327"/>
					</g>
					<rect x="91.107" y="216.833" fill="#895F3D" width="40.68" height="1.11"/>
				</g>
			</g>
			<g>
				<rect x="239.584" y="203.742" fill="#895F3D" width="42.443" height="27.292"/>
				<rect x="241.216" y="205.206" fill="#9AD7DD" width="39.423" height="24.364"/>
				<polygon opacity="0.15" fill="#FFFFFF" points="268.025,205.206 259.371,205.206 254.749,205.206 275.352,229.57
					280.639,229.57 280.639,220.1 				"/>
				<polygon opacity="0.15" fill="#FFFFFF" points="250.703,205.206 243.012,205.206 263.615,229.57 271.762,229.57 				"/>
				<g>
					<g>
						<rect x="253.269" y="204.725" fill="#895F3D" width="1.108" height="25.327"/>
						<rect x="268.248" y="204.725" fill="#895F3D" width="1.111" height="25.327"/>
					</g>
					<rect x="240.42" y="216.833" fill="#895F3D" width="40.681" height="1.11"/>
				</g>
			</g>
			<g>
				<g>
					<rect x="149.102" y="146.442" fill="#895F3D" width="37.611" height="12.473"/>
					<rect x="150.143" y="147.112" fill="#9AD7DD" width="35.598" height="11.133"/>
					<polygon opacity="0.15" fill="#FFFFFF" points="173.29,147.112 165.692,147.112 161.631,147.112 171.055,158.254
						182.729,158.254 					"/>
					<polygon opacity="0.15" fill="#FFFFFF" points="158.079,147.112 151.326,147.112 160.746,158.254 167.709,158.254 					"/>
					<g>
						<g>
							<rect x="160.727" y="146.817" fill="#895F3D" width="0.977" height="11.646"/>
							<rect x="173.885" y="146.817" fill="#895F3D" width="0.973" height="11.646"/>
							<rect x="185.74" y="146.817" fill="#895F3D" width="0.973" height="11.646"/>
						</g>
					</g>
				</g>
				<g>
					<rect x="185.74" y="146.447" fill="#895F3D" width="37.611" height="12.472"/>
					<rect x="186.779" y="147.116" fill="#9AD7DD" width="35.598" height="11.133"/>
					<polygon opacity="0.15" fill="#FFFFFF" points="209.929,147.116 202.329,147.116 198.27,147.116 207.693,158.258
						219.365,158.258 					"/>
					<polygon opacity="0.15" fill="#FFFFFF" points="194.716,147.116 187.963,147.116 197.385,158.258 204.348,158.258 					"/>
					<g>
						<g>
							<rect x="197.365" y="146.822" fill="#895F3D" width="0.975" height="11.646"/>
							<rect x="210.521" y="146.822" fill="#895F3D" width="0.974" height="11.646"/>
							<rect x="222.377" y="146.822" fill="#895F3D" width="0.975" height="11.646"/>
						</g>
					</g>
				</g>
			</g>
			<rect x="152.997" y="163.354" fill="#FFFFFF" width="65.483" height="18.536"/>
			<g>
				<path fill="#424143" d="M156.338,175.719c0.628,0.323,1.611,0.629,2.579,0.629c1.135,0,1.73-0.509,1.73-1.256
					s-0.544-1.152-1.783-1.679c-1.798-0.764-2.849-1.85-2.849-3.325c0-1.917,1.512-3.41,4.104-3.41c1.139,0,2.001,0.237,2.58,0.526
					l-0.512,2.019c-0.404-0.203-1.135-0.492-2.102-0.492c-1.068,0-1.575,0.543-1.575,1.119c0,0.729,0.54,1.052,1.95,1.663
					c1.865,0.813,2.68,1.882,2.68,3.376c0,1.968-1.477,3.528-4.344,3.528c-1.188,0-2.359-0.323-2.917-0.627L156.338,175.719z"/>
				<path fill="#424143" d="M173.132,177.992c-0.423,0.204-1.371,0.425-2.557,0.425c-3.648,0-5.498-2.46-5.498-5.7
					c0-4.021,2.68-6.039,5.75-6.039c1.186,0,2.053,0.237,2.441,0.44l-0.491,2.003c-0.422-0.204-1.034-0.374-1.814-0.374
					c-1.816,0-3.273,1.206-3.273,3.818c0,2.425,1.254,3.748,3.273,3.748c0.661,0,1.393-0.137,1.831-0.306L173.132,177.992z"/>
				<path fill="#424143" d="M178.021,166.831v4.461h3.682v-4.461h2.476v11.434h-2.476v-4.783h-3.682v4.783h-2.478v-11.434H178.021z"
					/>
				<path fill="#424143" d="M196.549,172.412c0,3.919-2.053,6.021-5.04,6.021c-3.139,0-4.854-2.611-4.854-5.835
					c0-3.342,1.918-5.938,5.021-5.938C194.97,166.66,196.549,169.408,196.549,172.412z M189.271,172.565
					c0,2.341,0.882,3.85,2.355,3.85c1.512,0,2.309-1.663,2.309-3.918c0-2.036-0.764-3.817-2.326-3.817
					C190.135,168.68,189.271,170.274,189.271,172.565z"/>
				<path fill="#424143" d="M208.355,172.412c0,3.919-2.054,6.021-5.038,6.021c-3.139,0-4.852-2.611-4.852-5.835
					c0-3.342,1.916-5.938,5.02-5.938C206.778,166.66,208.355,169.408,208.355,172.412z M201.077,172.565
					c0,2.341,0.883,3.85,2.36,3.85c1.507,0,2.308-1.663,2.308-3.918c0-2.036-0.765-3.817-2.326-3.817
					C201.943,168.68,201.077,170.274,201.077,172.565z"/>
				<path fill="#424143" d="M210.819,166.831h2.475v9.346h4.055v2.088h-6.529V166.831z"/>
			</g>
		</g>
	</g>
	<path fill="#9FBB3B" d="M100.466,233.955c0-1.423-0.618-2.702-1.602-3.583c0.622-0.818,0.992-1.84,0.992-2.947
		c0-2.191-1.445-4.046-3.436-4.66c0.145-0.462,0.223-0.953,0.223-1.464c0-2.693-2.184-4.878-4.877-4.878
		c-0.221,0-0.438,0.017-0.65,0.045c-0.585-2.037-2.461-3.529-4.688-3.529c-1.927,0-3.594,1.119-4.385,2.742
		c-0.701-0.391-1.509-0.613-2.368-0.613c-1.829,0-3.423,1.008-4.258,2.499c-0.848-0.714-1.942-1.144-3.136-1.144
		c-2.694,0-4.879,2.185-4.879,4.878c0,0.078,0.003,0.155,0.007,0.232c-2.621,0.159-4.698,2.335-4.698,4.996
		c0,1.799,0.948,3.374,2.372,4.257c-0.004,0.029-0.009,0.059-0.011,0.088c-1.344,0.868-2.233,2.379-2.233,4.097
		c0,2.429,1.775,4.442,4.099,4.814c0.433,2.183,2.32,3.841,4.609,3.921v0.004h20.219c2.149,0,3.893-1.742,3.893-3.893
		c0-0.367-0.053-0.721-0.147-1.059c0.049,0.002,0.098,0.004,0.147,0.004C98.313,238.763,100.466,236.61,100.466,233.955z"/>
</g>
</svg>
